<svg xmlns="http://www.w3.org/2000/svg" width="1200" height="630" viewBox="0 0 1200 630" role="img" aria-label="edusalsa.com 2026 best call tracking tool cover, friendly small business guide by Maya Foster">
  <defs>
    <linearGradient id="es-bg" x1="0" y1="0" x2="1" y2="1">
      <stop offset="0" stop-color="#FFFFFF"/>
      <stop offset="1" stop-color="#EFF6FF"/>
    </linearGradient>
  </defs>
  <rect width="1200" height="630" fill="url(#es-bg)"/>
  <rect x="0" y="0" width="1200" height="10" fill="#3B82F6"/>

  <g transform="translate(80 80)">
    <rect x="0" y="0" width="56" height="56" rx="14" fill="#3B82F6"/>
    <path d="M14 28c3 7 9 12.7 16 16l5.4-5.4c.7-.7 1.6-.9 2.5-.6 2.7 1 5.7 1.5 8.7 1.5 1.2 0 2.2 1 2.2 2.2v8.5c0 1.2-1 2.2-2.2 2.2-22.9 0-41.5-18.6-41.5-41.5 0-1.2 1-2.2 2.2-2.2H16c1.2 0 2.2 1 2.2 2.2 0 3 .5 6 1.5 8.7.3.9.1 1.8-.6 2.5L14 28z" fill="#FFFFFF" transform="translate(2 2)"/>
  </g>

  <text x="160" y="120" font-family="Inter, sans-serif" font-weight="800" font-size="34" fill="#1F2937" letter-spacing="-1">edusalsa.com</text>
  <text x="160" y="148" font-family="Inter, sans-serif" font-weight="500" font-size="16" fill="#6B7280" letter-spacing="2">CALL TRACKING MADE SIMPLE</text>

  <text x="80" y="280" font-family="Inter, sans-serif" font-weight="800" font-size="78" fill="#1F2937" letter-spacing="-3">Best Call Tracking</text>
  <text x="80" y="360" font-family="Inter, sans-serif" font-weight="800" font-size="78" fill="#1F2937" letter-spacing="-3">Tool in 2026</text>

  <line x1="80" y1="400" x2="220" y2="400" stroke="#3B82F6" stroke-width="4" stroke-linecap="round"/>

  <text x="80" y="446" font-family="Inter, sans-serif" font-weight="500" font-size="22" fill="#374151">A friendly guide for small business owners</text>
  <text x="80" y="478" font-family="Inter, sans-serif" font-weight="500" font-size="22" fill="#374151">by Maya Foster</text>

  <g transform="translate(720 360)">
    <rect width="400" height="180" rx="20" fill="#FCD34D"/>
    <text x="200" y="56" text-anchor="middle" font-family="Inter, sans-serif" font-weight="700" font-size="14" fill="#78350F" letter-spacing="3">2026 TOP PICK</text>
    <text x="200" y="118" text-anchor="middle" font-family="Inter, sans-serif" font-weight="800" font-size="44" fill="#1F2937" letter-spacing="-1">CallScaler</text>
    <text x="200" y="152" text-anchor="middle" font-family="Inter, sans-serif" font-weight="500" font-size="16" fill="#78350F">Free to start · No credit card</text>
  </g>

  <text x="600" y="600" text-anchor="middle" font-family="Inter, sans-serif" font-weight="600" font-size="14" fill="#6B7280" letter-spacing="3">EDUSALSA.COM</text>
</svg>
